<svg width="65" height="64" viewBox="0 0 65 64" fill="none" xmlns="http://www.w3.org/2000/svg">
<path d="M32.5 0C35.3672 0 38.1448 0.3776 40.788 1.0848L33.9848 7.8848C33.4687 8.40298 33.0135 8.97845 32.628 9.6H32.5C28.0697 9.6 23.7389 10.9137 20.0552 13.3751C16.3716 15.8364 13.5005 19.3348 11.8051 23.4279C10.1097 27.521 9.6661 32.0248 10.5304 36.37C11.3947 40.7152 13.5281 44.7065 16.6608 47.8392C19.7935 50.9719 23.7848 53.1053 28.13 53.9696C32.4752 54.8339 36.979 54.3903 41.0721 52.6949C45.1652 50.9995 48.6636 48.1284 51.1249 44.4448C53.5863 40.7611 54.9 36.4303 54.9 32V31.872C55.5187 31.488 56.0893 31.0347 56.612 30.512L63.4152 23.712C64.1224 26.3552 64.5 29.1328 64.5 32C64.5 49.6736 50.1736 64 32.5 64C14.8264 64 0.5 49.6736 0.5 32C0.5 14.3264 14.8264 0 32.5 0ZM31.1752 16.0544C31.1752 18.7776 31.0408 21.5392 31.188 24.2592L29.46 25.9872C28.8656 26.5816 28.3941 27.2873 28.0724 28.0639C27.7507 28.8406 27.5851 29.673 27.5851 30.5136C27.5851 31.3542 27.7507 32.1866 28.0724 32.9633C28.3941 33.7399 28.8656 34.4456 29.46 35.04C30.0544 35.6344 30.7601 36.1059 31.5367 36.4276C32.3134 36.7493 33.1458 36.9149 33.9864 36.9149C34.827 36.9149 35.6594 36.7493 36.4361 36.4276C37.2127 36.1059 37.9184 35.6344 38.5128 35.04L40.2408 33.312C42.9608 33.4592 45.7192 33.3248 48.4456 33.3248C48.1928 36.3659 47.0756 39.2713 45.2258 41.6983C43.376 44.1253 40.8708 45.9727 38.0055 47.0226C35.1402 48.0725 32.0344 48.2811 29.0545 47.6239C26.0745 46.9666 23.3447 45.4709 21.1869 43.3131C19.0291 41.1553 17.5334 38.4255 16.8761 35.4455C16.2189 32.4656 16.4275 29.3598 17.4774 26.4945C18.5273 23.6292 20.3747 21.124 22.8017 19.2742C25.2287 17.4244 28.1341 16.3072 31.1752 16.0544ZM53.3128 0.4064C53.8969 0.648573 54.3961 1.05836 54.7475 1.58403C55.0989 2.1097 55.2867 2.72769 55.2872 3.36V9.216H61.14C61.7728 9.21614 62.3914 9.40388 62.9175 9.75552C63.4436 10.1071 63.8536 10.6069 64.0958 11.1915C64.3379 11.7761 64.4013 12.4195 64.2779 13.0401C64.1545 13.6608 63.8498 14.2309 63.4024 14.6784L52.084 25.984C51.484 26.5842 50.6702 26.9214 49.8216 26.9216H42.1L36.2504 32.7744C35.65 33.3749 34.8356 33.7122 33.9864 33.7122C33.1372 33.7122 32.3229 33.3749 31.7224 32.7744C31.122 32.174 30.7846 31.3596 30.7846 30.5104C30.7846 29.6612 31.122 28.8468 31.7224 28.2464L37.5752 22.4V14.6752C37.5749 14.2545 37.6575 13.8378 37.8184 13.449C37.9793 13.0603 38.2153 12.7071 38.5128 12.4096L49.8248 1.0976C50.2723 0.649815 50.8426 0.344827 51.4635 0.22122C52.0843 0.097614 52.7279 0.160944 53.3128 0.4032" fill="white"/>
</svg>
