<svg width="67" height="60" viewBox="0 0 67 60" fill="none" xmlns="http://www.w3.org/2000/svg">
<path d="M55.8523 0.544067L66.222 18.9816H54.6377L46.7085 0.544067H55.8523ZM41.1856 0.544067L49.1148 18.9816H17.3293L25.2585 0.544067H41.1856ZM10.5918 0.544067H19.7356L11.8064 18.9816H0.222046L10.5918 0.544067ZM0.222046 22.6691H11.7606L25.8543 51.6736C26.0262 52.0308 25.545 52.3534 25.2814 52.0538L0.222046 22.6691ZM17.2033 22.6691H49.2408L33.5429 59.3366C33.4283 59.6132 33.0273 59.6132 32.9127 59.3366L17.2033 22.6691ZM40.5898 51.6736L54.6835 22.6691H66.222L41.1627 52.0423C40.8991 52.3534 40.4179 52.0308 40.5898 51.6736Z" fill="white"/>
</svg>
