<svg width="56" height="56" viewBox="0 0 56 56" fill="none" xmlns="http://www.w3.org/2000/svg">
<path d="M45.0009 2.62234C45.0009 1.53707 44.2318 0.658051 43.2822 0.658051H36.4072C35.4576 0.658051 34.6884 1.53707 34.6884 2.62234V8.51519H45.0009V2.62234ZM7.17875 16.3711C6.90912 27.8929 0.685095 30.3949 0.313416 46.3277V51.7295C0.313416 53.8988 1.85277 55.6581 3.75092 55.6581H14.0634C15.9616 55.6581 17.5009 53.8988 17.5009 51.7295V32.0866H20.9384V12.4438H10.6087C8.71488 12.4438 7.23031 14.2079 7.17875 16.3711ZM48.4481 16.3711C48.3965 14.2079 46.912 12.4438 45.0181 12.4438H34.6884V32.0866H38.1259V51.7295C38.1259 53.8988 39.6653 55.6581 41.5634 55.6581H51.8759C53.7741 55.6581 55.3134 53.8988 55.3134 51.7295V46.3277C54.9417 30.3949 48.7177 27.8929 48.4481 16.3711ZM19.2197 0.658051H12.3447C11.3951 0.658051 10.6259 1.53707 10.6259 2.62234V8.51519H20.9384V2.62234C20.9384 1.53707 20.1693 0.658051 19.2197 0.658051ZM24.3759 32.0866H31.2509V12.4438H24.3759V32.0866Z" fill="white"/>
</svg>
